<?xml version="1.0" encoding="iso-8859-1"?>
<!-- Generator: Adobe Illustrator 19.0.0, SVG Export Plug-In . SVG Version: 6.00 Build 0)  -->
<svg xmlns="http://www.w3.org/2000/svg" xmlns:xlink="http://www.w3.org/1999/xlink" version="1.1" id="Capa_1" x="0px" y="0px" viewBox="0 0 480 480" style="enable-background:new 0 0 480 480;" xml:space="preserve" width="512px" height="512px">
<g>
	<g>
		<path d="M368,56c-39.764,0-72,32.235-72,72c0.043,39.747,32.253,71.957,72,72c39.765,0,72-32.236,72-72    C440,88.235,407.765,56,368,56z M384,181.641c-10.435,3.145-21.565,3.145-32,0V152c0-8.837,7.163-16,16-16s16,7.163,16,16V181.641    z M360,112c0-4.418,3.582-8,8-8s8,3.582,8,8s-3.582,8-8,8C363.583,119.997,360.003,116.417,360,112z M400,173.889V152    c-0.027-10.091-4.831-19.573-12.951-25.564c3.193-4.137,4.933-9.211,4.951-14.436c0-13.255-10.745-24-24-24s-24,10.745-24,24    c0.019,5.225,1.759,10.299,4.951,14.436C340.831,132.427,336.027,141.909,336,152v21.888    c-25.368-17.648-31.626-52.52-13.978-77.888C332.492,80.951,349.668,71.985,368,72c30.903-0.025,55.975,25.008,56,55.911    C424.015,146.243,415.049,163.419,400,173.889z" fill="#f0f0f0"/>
	</g>
</g>
<g>
	<g>
		<path d="M472.009,24c-0.003,0-0.006,0-0.009,0H264c-4.416-0.003-7.997,3.575-8,7.991c0,0.003,0,0.006,0,0.009v176h-16.472    c-4.404-39.504-39.998-67.958-79.502-63.554c-33.435,3.727-59.826,30.119-63.554,63.554H8c-4.416-0.003-7.997,3.575-8,7.991    c0,0.003,0,0.006,0,0.009v232c-0.003,4.416,3.575,7.997,7.991,8c0.003,0,0.006,0,0.009,0h320c4.416,0.003,7.997-3.575,8-7.991    c0-0.003,0-0.006,0-0.009V312h136c4.416,0.003,7.997-3.575,8-7.991c0-0.003,0-0.006,0-0.009V32    C480.003,27.584,476.425,24.003,472.009,24z M168,160c27.826,0.034,51.419,20.465,55.43,48h-16.234    c-4.421-21.647-25.553-35.612-47.2-31.191c-15.708,3.208-27.983,15.483-31.191,31.191H112.57    C116.581,180.465,140.174,160.034,168,160z M190.526,208h-45.052c4.339-12.441,17.942-19.008,30.382-14.669    C182.728,195.727,188.129,201.129,190.526,208z M319.602,224c-4.158,40.855-38.536,71.95-79.602,72h-48v-16    c0.003-4.416-3.575-7.997-7.991-8c-0.003,0-0.006,0-0.009,0h-32c-4.416-0.003-7.997,3.575-8,7.991c0,0.003,0,0.006,0,0.009v16H96    c-41.066-0.05-75.444-31.145-79.602-72H319.602z M176,288v32h-16v-32H176z M320,440H16V268.953    c17.755,26.863,47.8,43.03,80,43.047h48v16c-0.003,4.416,3.575,7.997,7.991,8c0.003,0,0.006,0,0.009,0h32    c4.416,0.003,7.997-3.575,8-7.991c0-0.003,0-0.006,0-0.009v-16h48c32.2-0.017,62.245-16.184,80-43.047V440z M464,296H336v-24h24    v-16h-24v-16h56v-16h-56v-8c0.003-4.416-3.575-7.997-7.991-8c-0.003,0-0.006,0-0.009,0h-56V40h192V296z" fill="#f0f0f0"/>
	</g>
</g>
<g>
	<g>
		<rect x="408" y="224" width="40" height="16" fill="#f0f0f0"/>
	</g>
</g>
<g>
	<g>
		<rect x="376" y="256" width="72" height="16" fill="#f0f0f0"/>
	</g>
</g>
<g>
</g>
<g>
</g>
<g>
</g>
<g>
</g>
<g>
</g>
<g>
</g>
<g>
</g>
<g>
</g>
<g>
</g>
<g>
</g>
<g>
</g>
<g>
</g>
<g>
</g>
<g>
</g>
<g>
</g>
</svg>
