<?xml version="1.0" encoding="iso-8859-1"?>
<!-- Generator: Adobe Illustrator 19.0.0, SVG Export Plug-In . SVG Version: 6.00 Build 0)  -->
<svg xmlns="http://www.w3.org/2000/svg" xmlns:xlink="http://www.w3.org/1999/xlink" version="1.1" id="Capa_1" x="0px" y="0px" viewBox="0 0 480.007 480.007" style="enable-background:new 0 0 480.007 480.007;" xml:space="preserve" width="512px" height="512px">
<g>
	<g>
		<rect x="435.302" y="4.027" transform="matrix(0.7071 -0.7071 0.7071 0.7071 121.3351 316.9839)" width="16" height="16" fill="#f0f0f0"/>
	</g>
</g>
<g>
	<g>
		<rect x="412.693" y="26.632" transform="matrix(0.7071 -0.7071 0.7071 0.7071 98.7299 307.6183)" width="16" height="16" fill="#f0f0f0"/>
	</g>
</g>
<g>
	<g>
		<rect x="435.3" y="26.657" transform="matrix(0.7071 -0.7071 0.7071 0.7071 105.3337 323.6112)" width="16" height="16" fill="#f0f0f0"/>
	</g>
</g>
<g>
	<g>
		<rect x="412.695" y="4.002" transform="matrix(0.7071 -0.7071 0.7071 0.7071 114.7321 300.9919)" width="16" height="16" fill="#f0f0f0"/>
	</g>
</g>
<g>
	<g>
		<rect x="27.3" y="212.973" transform="matrix(0.7071 -0.7071 0.7071 0.7071 -145.9118 89.6814)" width="16" height="16" fill="#f0f0f0"/>
	</g>
</g>
<g>
	<g>
		<rect x="4.691" y="235.56" transform="matrix(0.7071 -0.7071 0.7071 0.7071 -168.506 80.3118)" width="16" height="16" fill="#f0f0f0"/>
	</g>
</g>
<g>
	<g>
		<rect x="27.297" y="235.562" transform="matrix(0.7071 -0.7071 0.7071 0.7071 -161.8862 96.2966)" width="16" height="16" fill="#f0f0f0"/>
	</g>
</g>
<g>
	<g>
		<rect x="4.694" y="212.978" transform="matrix(0.7071 -0.7071 0.7071 0.7071 -152.5372 73.699)" width="16" height="16" fill="#f0f0f0"/>
	</g>
</g>
<g>
	<g>
		<rect x="51.323" y="4.006" transform="matrix(0.7071 -0.7071 0.7071 0.7071 8.8852 45.4641)" width="16" height="16" fill="#f0f0f0"/>
	</g>
</g>
<g>
	<g>
		<rect x="28.699" y="26.634" transform="matrix(0.7071 -0.7071 0.7071 0.7071 -13.741 36.0939)" width="16" height="16" fill="#f0f0f0"/>
	</g>
</g>
<g>
	<g>
		<rect x="51.32" y="26.628" transform="matrix(0.7071 -0.7071 0.7071 0.7071 -7.1113 52.0883)" width="16" height="16" fill="#f0f0f0"/>
	</g>
</g>
<g>
	<g>
		<rect x="28.693" y="4.004" transform="matrix(0.7071 -0.7071 0.7071 0.7071 2.2589 29.4619)" width="16" height="16" fill="#f0f0f0"/>
	</g>
</g>
<g>
	<g>
		<rect x="460.316" y="212.98" transform="matrix(0.7071 -0.7071 0.7071 0.7071 -19.0901 395.8729)" width="16" height="16" fill="#f0f0f0"/>
	</g>
</g>
<g>
	<g>
		<rect x="437.664" y="235.564" transform="matrix(0.7071 -0.7071 0.7071 0.7071 -41.6938 386.4699)" width="16" height="16" fill="#f0f0f0"/>
	</g>
</g>
<g>
	<g>
		<rect x="460.321" y="235.538" transform="matrix(0.7071 -0.7071 0.7071 0.7071 -35.0387 402.4853)" width="16" height="16" fill="#f0f0f0"/>
	</g>
</g>
<g>
	<g>
		<rect x="437.666" y="213.006" transform="matrix(0.7071 -0.7071 0.7071 0.7071 -25.7425 379.8646)" width="16" height="16" fill="#f0f0f0"/>
	</g>
</g>
<g>
	<g>
		<rect x="288.007" y="279.319" width="16" height="16" fill="#f0f0f0"/>
	</g>
</g>
<g>
	<g>
		<rect x="288.007" y="311.319" width="16" height="64" fill="#f0f0f0"/>
	</g>
</g>
<g>
	<g>
		<rect x="344.007" y="95.319" width="32" height="16" fill="#f0f0f0"/>
	</g>
</g>
<g>
	<g>
		<rect x="316.698" y="18.624" transform="matrix(0.7071 -0.7071 0.7071 0.7071 78.6188 243.0515)" width="32" height="16" fill="#f0f0f0"/>
	</g>
</g>
<g>
	<g>
		<rect x="104.007" y="95.319" width="32" height="16" fill="#f0f0f0"/>
	</g>
</g>
<g>
	<g>
		<rect x="140.009" y="10.376" transform="matrix(0.7071 -0.7071 0.7071 0.7071 24.0123 112.6681)" width="16" height="33.944" fill="#f0f0f0"/>
	</g>
</g>
<g>
	<g>
		<path d="M464.159,401.53c11.378-5.518,17.668-17.956,15.371-30.391c-1.38-7.55-5.83-14.19-12.289-18.336l-65.816-46.836    l-22.457-45.304c-6.098-26.61-40.395-53.344-68.813-53.344h-21.658c1.293-13.468,6.896-26.159,15.979-36.188    c33.059-35.55,31.04-91.169-4.51-124.228c-0.421-0.392-0.846-0.779-1.275-1.163c-36.207-32.417-91.838-29.344-124.254,6.863    c-12.432,13.885-20.134,31.359-21.996,49.903c-2.57,24.676,5.502,49.276,22.191,67.633c9.33,10.349,15.215,23.341,16.843,37.18    h-24.476c-25.961,0-48.863,26.375-56.539,52.391l-35.977,48.023l-57.531,36.492c-14.052,7.339-19.493,24.68-12.154,38.731    c0.568,1.088,1.205,2.138,1.908,3.144c3.717,5.345,9.157,9.25,15.41,11.063C1.04,409.248-6.249,436.132,5.836,457.21    c7.843,13.677,22.405,22.112,38.171,22.109h392c24.291,0.01,43.99-19.674,44-43.965    C480.012,422.284,474.205,409.89,464.159,401.53z M186.507,159.42c-26.589-29.545-24.194-75.05,5.351-101.639    c27.32-24.587,68.777-24.638,96.157-0.118c29.609,26.456,32.165,71.905,5.709,101.514c-0.317,0.355-0.638,0.708-0.963,1.056    c-11.842,12.992-19.017,29.56-20.391,47.086h-24.363V129.98l22.398-29.865l-12.797-9.594l-17.602,23.461l-17.602-23.461    l-12.797,9.594l22.398,29.865v77.338h-24.393C205.912,189.499,198.51,172.702,186.507,159.42z M262.533,223.319    c-4.338,12.441-17.94,19.009-30.381,14.67c-6.872-2.396-12.274-7.798-14.67-14.67H262.533z M264.007,463.319h-64v-48h64    c13.255,0,24,10.745,24,24S277.262,463.319,264.007,463.319z M436.007,463.319H295.803c5.291-6.885,8.174-15.317,8.205-24    c-0.026-22.081-17.919-39.974-40-40h-72c-4.417-0.001-7.999,3.579-8,7.996c0,0.001,0,0.003,0,0.004v56h-140    c-15.464,0-28-12.536-28-28c0-15.464,12.536-28,28-28h116c4.417,0.001,7.999-3.579,8-7.996c0-0.001,0-0.003,0-0.004v-120    c-0.002-4.418-3.584-7.998-8.002-7.996c-2.642,0.001-5.113,1.307-6.603,3.488l-36.676,53.719c-1.52,2.144-3.332,4.066-5.383,5.711    l-75.109,46.641c-5.679,3.024-12.722,1.335-16.41-3.937c-2.109-2.986-2.811-6.743-1.922-10.289    c0.955-3.762,3.533-6.905,7.035-8.578l59.352-37.617c0.819-0.522,1.537-1.186,2.121-1.961l37.742-50.383    c0.606-0.807,1.053-1.721,1.316-2.695c5.543-20.328,23.555-42.102,41.531-42.102h33.813c4.421,21.647,25.553,35.612,47.2,31.191    c15.708-3.208,27.983-15.483,31.191-31.191h30.953c21.047,0,49.473,22.141,53.359,41.57c0.137,0.688,0.364,1.355,0.676,1.984    l23.793,48c0.586,1.181,1.456,2.198,2.531,2.961l67.852,48.273c5.618,3.512,7.326,10.914,3.813,16.533    c-3.39,5.422-10.437,7.233-16.02,4.116l-65.14-46.031c-2.628-2.002-4.809-4.53-6.406-7.422l-40-58.5    c-2.496-3.647-7.476-4.58-11.123-2.084c-2.178,1.491-3.481,3.96-3.483,6.6v120c-0.001,4.417,3.579,7.999,7.996,8    c0.001,0,0.003,0,0.004,0h108c15.464,0,28,12.536,28,28C464.007,450.783,451.471,463.319,436.007,463.319z M49.722,391.319    l70.644-43.883c3.644-2.74,6.841-6.029,9.477-9.75l22.164-32.461v86.094H49.722z M424.918,391.319h-88.91v-86.141l25.055,36.617    c2.656,4.639,6.244,8.677,10.539,11.859L424.918,391.319z" fill="#f0f0f0"/>
	</g>
</g>
<g>
</g>
<g>
</g>
<g>
</g>
<g>
</g>
<g>
</g>
<g>
</g>
<g>
</g>
<g>
</g>
<g>
</g>
<g>
</g>
<g>
</g>
<g>
</g>
<g>
</g>
<g>
</g>
<g>
</g>
</svg>
